<?xml version="1.0" encoding="utf-8"?>
<svg version="1.0" xmlns="http://www.w3.org/2000/svg" width="1080.000000pt" height="1080.000000pt" viewBox="0 0 1080.000000 1080.000000" preserveAspectRatio="xMidYMid meet" xmlns:bx="https://boxy-svg.com">
  <defs>
    <bx:export>
      <bx:file format="svg" href="#object-0" units="pt" excluded="true"/>
      <bx:file format="svg" path="Untitled 2.svg" units="pt"/>
    </bx:export>
  </defs>
  <rect x="260.229" y="228.672" width="558.327" height="778.746" style="fill: rgb(255, 255, 255); stroke: rgb(255, 255, 255);"/>
  <rect x="275.28" y="41.146" width="527.255" height="199.056" style="fill: rgb(255, 255, 255); stroke: rgb(255, 255, 255); stroke-width: 1;" id="object-0"/>
  <g transform="matrix(0.1, 0, 0, -0.1, 0, 1079.915421)" fill="#000000" stroke="none">
    <path d="M2830 10744 c-107 -28 -200 -82 -280 -163 -86 -87 -121 -147 -152 -258 -20 -71 -22 -107 -26 -428 -3 -322 -2 -358 17 -449 29 -142 67 -214 168 -315 l83 -84 -31 -51 c-18 -28 -34 -53 -38 -56 -10 -8 -190 -236 -292 -370 -121 -159 -159 -225 -197 -341 -66 -199 -62 40 -62 -3479 l0 -3196 25 -139 c45 -258 139 -496 276 -705 68 -102 267 -315 358 -383 84 -62 213 -147 246 -162 17 -7 56 -25 88 -39 31 -14 106 -38 165 -53 l107 -28 2010 0 c2123 0 2124 0 2320 46 277 65 456 168 675 388 274 276 419 560 475 929 13 90 15 476 15 3284 0 3154 0 3184 -20 3308 -22 131 -72 295 -121 392 -30 59 -354 498 -390 528 -3 3 -25 36 -49 74 -41 64 -42 69 -24 78 41 22 151 148 181 209 66 132 68 153 68 579 0 372 -1 388 -23 465 -57 196 -274 393 -469 425 -36 6 -1020 10 -2553 9 -2154 0 -2503 -2 -2550 -15z m4870 -912 l0 -198 -41 -39 c-204 -197 -278 -508 -187 -780 22 -67 120 -236 188 -325 25 -32 108 -141 186 -242 147 -192 172 -239 194 -362 14 -84 14 -6306 -1 -6396 -33 -205 -154 -410 -331 -560 -102 -85 -198 -122 -383 -145 -102 -13 -389 -15 -2020 -15 -1279 0 -1913 3 -1940 10 -115 30 -235 110 -352 235 -72 76 -94 108 -144 210 -32 66 -71 165 -86 220 l-28 100 0 3205 0 3205 22 48 c24 51 34 64 273 367 206 259 276 383 306 538 46 242 -30 493 -201 662 l-55 54 0 203 0 203 2300 0 2300 0 0 -198z" style="stroke: rgb(255, 255, 255); paint-order: stroke;"/>
    <path d="M6535 7975 c-161 -45 -284 -147 -326 -272 -24 -73 -17 -71 -129 -23 -218 95 -372 136 -580 155 -309 27 -597 -23 -832 -146 -20 -10 -39 -19 -41 -19 -3 0 -14 16 -26 35 -24 41 -31 49 -93 112 -65 67 -69 70 -148 107 -57 28 -86 35 -162 40 -177 13 -278 -14 -417 -112 -73 -51 -171 -143 -171 -160 0 -7 -4 -12 -10 -12 -14 0 -70 -115 -91 -190 -38 -133 -18 -388 40 -510 49 -105 145 -188 253 -220 40 -12 79 -23 86 -25 16 -6 15 -35 -1 -60 -44 -65 -89 -256 -95 -404 -13 -332 110 -617 343 -794 44 -33 105 -72 135 -86 30 -14 55 -30 55 -36 0 -5 -50 -35 -111 -66 -131 -66 -228 -133 -304 -209 -82 -82 -107 -115 -146 -200 -42 -89 -54 -140 -54 -233 0 -80 3 -93 34 -155 39 -77 109 -149 204 -206 34 -22 62 -44 62 -50 0 -6 -7 -44 -16 -86 l-16 -75 -92 -45 c-206 -100 -305 -271 -293 -505 6 -122 35 -236 84 -334 63 -125 142 -202 267 -261 153 -70 507 -102 731 -65 123 20 152 19 290 -12 118 -27 126 -27 470 -28 344 0 352 0 500 29 83 15 179 37 213 46 62 18 65 18 100 0 65 -33 214 -45 370 -31 219 21 329 67 452 192 84 86 110 115 110 127 0 4 8 19 18 32 21 31 38 75 64 170 29 110 22 285 -17 390 -59 160 -167 261 -338 317 -77 25 -86 31 -91 57 -12 57 -7 75 22 90 75 39 126 114 148 217 15 75 13 114 -12 233 -48 222 -252 452 -499 561 -30 14 -55 26 -55 28 0 2 43 25 95 52 277 139 451 356 525 652 43 170 55 298 42 425 -13 116 -44 267 -73 346 l-19 53 27 12 c87 38 187 136 235 230 38 75 58 174 58 291 0 196 -55 333 -189 467 -129 128 -254 179 -436 178 -55 0 -122 -7 -150 -14z" style="stroke: rgb(255, 255, 255); paint-order: stroke;"/>
  </g>
</svg>